<?xml version="1.0" encoding="UTF-8"?>
<svg xmlns="http://www.w3.org/2000/svg" xmlns:xlink="http://www.w3.org/1999/xlink" width="32px" height="32px" viewBox="0 0 32 32" version="1.1">
<g id="surface1">
<path style=" stroke:none;fill-rule:nonzero;fill:rgb(0%,0%,0%);fill-opacity:1;" d="M 28.695312 3.273438 L 27.664062 0.40625 C 27.542969 0.164062 27.28125 0 27.007812 0 C 26.730469 0 26.476562 0.164062 26.355469 0.40625 L 25.324219 3.273438 L 22.449219 4.324219 C 22.179688 4.425781 21.992188 4.695312 22 4.976562 C 22 5.257812 22.1875 5.519531 22.449219 5.613281 L 25.304688 6.664062 L 26.355469 9.523438 C 26.449219 9.800781 26.71875 9.992188 27.007812 9.992188 C 27.292969 9.992188 27.5625 9.800781 27.65625 9.523438 L 28.6875 6.664062 L 31.542969 5.613281 C 31.804688 5.519531 31.992188 5.257812 31.992188 4.976562 C 31.992188 4.6875 31.804688 4.417969 31.542969 4.324219 Z M 20.417969 6.585938 C 19.636719 5.804688 18.367188 5.804688 17.585938 6.585938 L 17.40625 6.769531 C 16.03125 6.269531 14.542969 6 13 6 C 5.820312 6 0 11.820312 0 19 C 0 26.179688 5.820312 32 13 32 C 20.179688 32 26 26.179688 26 19 C 26 17.457031 25.730469 15.96875 25.238281 14.59375 L 25.417969 14.414062 C 26.199219 13.632812 26.199219 12.363281 25.417969 11.582031 L 20.417969 6.582031 Z M 12.5 12 C 8.914062 12 6 14.914062 6 18.5 L 6 19 C 6 19.550781 5.550781 20 5 20 C 4.449219 20 4 19.550781 4 19 L 4 18.5 C 4 13.804688 7.804688 10 12.5 10 L 13 10 C 13.550781 10 14 10.449219 14 11 C 14 11.550781 13.550781 12 13 12 Z M 12.5 12 "/>
</g>
</svg>
